<svg xmlns="http://www.w3.org/2000/svg" viewBox="0 0 56 20" width="56" height="20" fill="black">
    <path d="M3.94 18.82h-2V8.28H0V6.7h1.94V4.25C1.94 2.1 3.26.7 5.18.7c.7 0 1.3.12 1.85.29v1.73a4.6 4.6 0 0 0-1.32-.22c-1.05 0-1.77.77-1.77 1.94V6.7H7v1.58H3.94v10.54Zm7.86 0H9.83V1.18h1.99v17.64Zm9.54.48c-3.81 0-6.5-2.71-6.5-6.55a6.26 6.26 0 0 1 6.5-6.53c3.8 0 6.5 2.71 6.5 6.53 0 3.84-2.7 6.55-6.5 6.55Zm0-1.8c2.62 0 4.52-2 4.52-4.75 0-2.74-1.9-4.73-4.52-4.73-2.64 0-4.5 2-4.5 4.73 0 2.76 1.86 4.75 4.5 4.75Zm11.54 1.32h-2V6.7h1.95v1.63h.22a3.7 3.7 0 0 1 4.73-1.56v1.85a4.98 4.98 0 0 0-1.8-.36c-1.83 0-3.1 1.63-3.1 4.03v6.53Zm10.58.38c-2.62 0-4.35-1.36-4.35-3.45 0-2.14 1.83-3.72 5.43-4.13l3.36-.4v-.49c0-1.63-1.18-2.69-3.17-2.69-1.82 0-3.02.9-3 2.4h-2.02c0-2.56 2-4.2 5.04-4.2 3.15 0 5.14 1.78 5.14 4.54v8.04h-2v-1.78h-.2c-.87 1.4-2.29 2.16-4.23 2.16Zm.29-1.65c2.47 0 4.15-1.51 4.15-3.55v-1.08l-3.36.38c-2.47.31-3.43 1.27-3.43 2.4 0 1.15 1 1.85 2.64 1.85Zm11.58 1.27h-1.99V1.18h2v17.64Z"></path>
</svg>